<?xml version="1.0" encoding="utf-8" ?>
<svg xmlns="http://www.w3.org/2000/svg" xmlns:xlink="http://www.w3.org/1999/xlink" width="5156" height="5156">
	<path fill="#05495D" transform="scale(5.0357 5.0357)" d="M0 0L1024 0L1024 1024L0 1024L0 0Z"/>
	<path fill="#EF916B" transform="scale(5.0357 5.0357)" d="M437.963 887.757C427.658 885.974 417.415 883.177 407.369 880.303Q402.784 878.99 398.234 877.563Q393.684 876.136 389.17 874.596Q384.657 873.055 380.184 871.402Q375.711 869.749 371.281 867.984Q366.85 866.22 362.465 864.344Q358.081 862.469 353.744 860.485Q349.408 858.501 345.122 856.409Q340.837 854.317 336.605 852.118Q332.374 849.919 328.198 847.615Q324.023 845.311 319.907 842.902Q315.791 840.495 311.736 837.984Q307.681 835.474 303.691 832.863Q299.7 830.252 295.776 827.541Q291.852 824.831 287.998 822.023Q284.143 819.216 280.36 816.312Q276.576 813.409 272.867 810.412Q269.228 807.509 265.662 804.517Q262.096 801.525 258.604 798.446Q255.113 795.367 251.698 792.203Q248.284 789.04 244.948 785.793Q241.612 782.546 238.357 779.218Q235.102 775.89 231.93 772.483Q228.758 769.076 225.671 765.592Q222.584 762.108 219.583 758.549Q216.583 754.99 213.671 751.358Q210.759 747.726 207.937 744.024Q205.115 740.322 202.386 736.551Q199.656 732.781 197.02 728.944Q194.384 725.107 191.843 721.207Q189.302 717.306 186.857 713.345Q184.413 709.383 182.067 705.362Q179.721 701.342 177.475 697.264Q175.229 693.187 173.084 689.056Q170.938 684.925 168.895 680.742Q166.852 676.559 164.913 672.327Q162.974 668.096 161.139 663.817Q159.304 659.539 157.575 655.217Q155.846 650.895 154.225 646.532Q152.603 642.168 151.089 637.766Q149.574 633.364 148.169 628.927Q146.764 624.489 145.468 620.018Q144.173 615.546 142.987 611.045Q141.802 606.543 140.728 602.014Q139.654 597.484 138.692 592.93Q137.729 588.375 136.879 583.799Q136.029 579.222 135.292 574.625Q134.555 570.029 133.932 565.416Q133.308 560.803 132.798 556.176C121.346 452.263 151.692 353.521 216.945 272.211C278.398 195.637 372.993 145.369 470.345 134.899Q475.033 134.366 479.733 133.949Q484.433 133.532 489.141 133.232Q493.85 132.932 498.565 132.75Q503.279 132.567 507.997 132.501Q512.715 132.436 517.433 132.487Q522.151 132.539 526.866 132.708Q531.581 132.877 536.291 133.163Q541 133.449 545.702 133.851Q550.403 134.254 555.092 134.774Q559.782 135.293 564.457 135.929Q569.132 136.565 573.79 137.317Q578.448 138.069 583.086 138.936Q587.724 139.804 592.338 140.786Q596.953 141.768 601.542 142.865Q606.131 143.962 610.692 145.172Q615.252 146.382 619.781 147.706Q624.31 149.029 628.804 150.464Q633.299 151.9 637.757 153.446Q642.214 154.993 646.632 156.65Q651.05 158.307 655.425 160.073Q659.8 161.839 664.13 163.714Q668.46 165.588 672.742 167.569Q677.024 169.55 681.256 171.638Q685.487 173.725 689.666 175.916Q693.844 178.108 697.967 180.403Q702.089 182.697 706.154 185.094Q710.218 187.49 714.221 189.987Q718.225 192.484 722.165 195.079Q726.106 197.674 729.98 200.367Q733.855 203.059 737.661 205.847Q741.468 208.635 745.204 211.517Q748.94 214.398 752.603 217.372Q756.241 220.269 759.806 223.256Q763.371 226.243 766.861 229.317Q770.351 232.391 773.764 235.551Q777.176 238.71 780.51 241.954Q783.843 245.197 787.095 248.522Q790.347 251.847 793.515 255.251Q796.684 258.656 799.767 262.138Q802.85 265.62 805.846 269.177Q808.842 272.734 811.749 276.365Q814.655 279.995 817.471 283.697Q820.287 287.398 823.01 291.168Q825.734 294.939 828.363 298.775Q830.992 302.611 833.525 306.512Q836.058 310.412 838.494 314.374Q840.929 318.336 843.266 322.357Q845.603 326.379 847.839 330.456Q850.076 334.534 852.21 338.666Q854.345 342.798 856.376 346.982Q858.408 351.166 860.335 355.398Q862.262 359.631 864.084 363.91Q865.905 368.189 867.62 372.512Q869.335 376.835 870.943 381.2Q872.55 385.564 874.049 389.967Q875.548 394.369 876.937 398.808Q878.326 403.246 879.605 407.718Q880.883 412.189 882.051 416.691Q883.218 421.193 884.274 425.723Q885.329 430.252 886.272 434.806Q887.215 439.36 888.045 443.937Q888.875 448.513 889.591 453.108Q890.307 457.703 890.909 462.315Q891.511 466.927 891.998 471.552C886.143 467.796 870.161 449.836 863.973 443.513Q842.179 420.82 818.617 399.968C816.23 396.9 813.791 394.037 811.073 391.258C807.03 387.437 802.923 384.89 798.033 382.254C792.277 376.723 786.837 370.868 781.18 365.236L740.584 324.781C732.777 316.882 720.693 303.107 712.086 297.019C708.878 291.378 702.98 285.432 698.118 281.136C684.286 268.913 663.976 260.056 645.276 261.18C641.881 258.613 638.732 255.916 635.621 253.013C634.278 250.396 632.719 247.626 630.897 245.308C624.608 237.307 616.818 236.834 607.597 235.628C601.133 230.812 596.21 225.289 590.194 220.499C578.573 198.894 560.755 180.411 536.705 173.177Q535.657 172.87 534.601 172.588Q533.545 172.306 532.483 172.05Q531.421 171.794 530.353 171.564Q529.285 171.334 528.211 171.13Q527.138 170.926 526.06 170.748Q524.982 170.57 523.9 170.418Q522.818 170.267 521.733 170.142Q520.647 170.017 519.559 169.918Q518.471 169.82 517.381 169.748Q516.29 169.676 515.199 169.63Q514.107 169.585 513.015 169.566Q511.922 169.547 510.83 169.554Q509.737 169.562 508.645 169.597Q507.553 169.631 506.462 169.692Q505.371 169.753 504.282 169.84Q503.193 169.928 502.107 170.042Q501.02 170.156 499.936 170.296Q498.853 170.437 497.773 170.603Q496.693 170.77 495.618 170.963Q494.542 171.156 493.472 171.375Q492.402 171.595 491.337 171.84Q490.272 172.085 489.214 172.356Q488.155 172.627 487.104 172.924Q486.052 173.221 485.008 173.543Q483.964 173.865 482.929 174.213Q481.893 174.56 480.866 174.933Q479.839 175.306 478.821 175.703Q477.803 176.101 476.796 176.523Q475.788 176.946 474.791 177.393Q473.794 177.839 472.808 178.31Q471.822 178.781 470.848 179.276Q469.874 179.771 468.912 180.289C447.66 191.751 432.586 212.272 425.883 235.244L425.61 236.187C414.626 236.094 399.646 233.919 391.183 242.307C389.431 244.043 388.188 246.032 386.953 248.142C381.036 250.243 371.061 254.716 366.253 258.845C343.01 264.734 322.179 276.698 309.721 297.813C307.401 301.743 304.908 306.258 303.441 310.58C300.945 318.09 298.979 325.625 298.36 333.541C297.227 348.025 298.177 363.041 298.283 377.572L298.372 449.633L298.5 714.893C298.505 722.438 298.294 730.058 299.087 737.571C300.927 755.001 308.727 772.386 321.201 784.826C329.081 792.685 339.01 798.163 348.854 803.154C356.763 812.079 366.117 820.238 374.761 828.455Q394.404 847.271 414.267 865.855C422.13 873.181 430.28 880.246 437.963 887.757Z"/>
	<path fill="#F36337" transform="scale(5.0357 5.0357)" d="M303.441 310.58C300.945 318.09 298.979 325.625 298.36 333.541C297.227 348.025 298.177 363.041 298.283 377.572L298.372 449.633L298.5 714.893C281.502 696.81 266.495 677.444 254.389 655.729Q252.656 652.609 251 649.449Q249.345 646.288 247.767 643.087Q246.189 639.886 244.69 636.648Q243.191 633.41 241.772 630.136Q240.353 626.862 239.014 623.554Q237.675 620.246 236.418 616.906Q235.161 613.567 233.986 610.197Q232.811 606.828 231.719 603.431Q230.627 600.034 229.619 596.611Q228.61 593.188 227.686 589.741Q226.762 586.295 225.922 582.826Q225.083 579.358 224.328 575.87Q223.574 572.383 222.905 568.877Q222.237 565.372 221.654 561.852Q221.072 558.331 220.575 554.797Q220.079 551.264 219.67 547.719Q219.26 544.174 218.938 540.62Q218.615 537.066 218.38 533.506Q218.145 529.945 217.997 526.38Q217.849 522.815 217.788 519.247Q217.727 515.679 217.754 512.111Q217.781 508.542 217.895 504.976Q218.01 501.409 218.211 497.846Q218.413 494.284 218.702 490.727Q218.99 487.17 219.366 483.622Q219.742 480.073 220.205 476.535Q220.667 472.997 221.217 469.471Q221.766 465.945 222.401 462.434Q223.037 458.922 223.758 455.427Q224.479 451.933 225.286 448.457Q226.093 444.981 226.984 441.526Q227.876 438.07 228.852 434.638C240.514 394.006 259.342 357.909 287.465 326.25C291.882 321.278 297.639 313.792 303.441 310.58Z"/>
	<path fill="#4B1F36" transform="scale(5.0357 5.0357)" d="M425.61 236.187L425.883 235.244C432.586 212.272 447.66 191.751 468.912 180.289Q469.874 179.771 470.848 179.276Q471.822 178.781 472.808 178.31Q473.794 177.839 474.791 177.393Q475.788 176.946 476.796 176.523Q477.803 176.101 478.821 175.703Q479.839 175.306 480.866 174.933Q481.893 174.56 482.929 174.213Q483.964 173.865 485.008 173.543Q486.052 173.221 487.104 172.924Q488.155 172.627 489.214 172.356Q490.272 172.085 491.337 171.84Q492.402 171.595 493.472 171.375Q494.542 171.156 495.618 170.963Q496.693 170.77 497.773 170.603Q498.853 170.437 499.936 170.296Q501.02 170.156 502.107 170.042Q503.193 169.928 504.282 169.84Q505.371 169.753 506.462 169.692Q507.553 169.631 508.645 169.597Q509.737 169.562 510.83 169.554Q511.922 169.547 513.015 169.566Q514.107 169.585 515.199 169.63Q516.291 169.676 517.381 169.748Q518.471 169.82 519.559 169.918Q520.647 170.017 521.733 170.142Q522.818 170.267 523.9 170.418Q524.982 170.57 526.06 170.748Q527.138 170.926 528.211 171.13Q529.285 171.334 530.353 171.564Q531.421 171.794 532.483 172.05Q533.545 172.306 534.601 172.588Q535.657 172.87 536.705 173.177C560.755 180.411 578.573 198.894 590.194 220.499C596.21 225.289 601.133 230.812 607.597 235.628C616.818 236.834 624.608 237.307 630.897 245.308C632.719 247.626 634.278 250.396 635.621 253.013C638.732 255.916 641.881 258.613 645.276 261.18C663.976 260.056 684.286 268.913 698.118 281.136C702.98 285.432 708.878 291.378 712.086 297.019C720.693 303.107 732.777 316.882 740.584 324.781L781.18 365.236C786.837 370.868 792.277 376.723 798.033 382.254C802.923 384.89 807.03 387.437 811.073 391.258C813.791 394.037 816.23 396.9 818.617 399.968Q842.179 420.82 863.973 443.513C870.161 449.836 886.143 467.796 891.998 471.552C893.778 484.727 893.965 498.451 894.039 511.743Q894.07 515.662 894.022 519.581Q893.973 523.501 893.844 527.418Q893.715 531.335 893.506 535.249Q893.297 539.163 893.008 543.072Q892.719 546.981 892.35 550.883Q891.981 554.785 891.532 558.678Q891.084 562.572 890.555 566.456Q890.027 570.339 889.419 574.211Q888.812 578.083 888.125 581.942Q887.438 585.801 886.672 589.645Q885.906 593.489 885.062 597.316Q884.218 601.144 883.296 604.953Q882.374 608.763 881.373 612.552Q880.373 616.342 879.296 620.11Q878.218 623.879 877.064 627.624Q875.91 631.37 874.679 635.091Q873.448 638.812 872.141 642.508Q870.835 646.203 869.453 649.871Q868.071 653.538 866.614 657.177Q865.157 660.816 863.627 664.424Q862.096 668.032 860.491 671.608Q858.887 675.184 857.209 678.726Q855.532 682.269 853.783 685.776Q852.033 689.283 850.212 692.754Q848.392 696.225 846.5 699.658Q844.609 703.091 842.647 706.484Q840.686 709.878 838.656 713.23Q836.625 716.583 834.527 719.893Q832.428 723.203 830.262 726.47Q828.096 729.736 825.864 732.958Q823.632 736.18 821.334 739.355Q819.036 742.53 816.674 745.658C800.999 766.196 783.314 783.622 763.621 800.261C704.551 850.171 636.973 881.843 560.18 892.067C521.052 897.277 476.492 896.751 437.963 887.757C430.28 880.246 422.13 873.181 414.267 865.855Q394.404 847.272 374.761 828.455C366.117 820.238 356.763 812.079 348.854 803.154C339.01 798.163 329.081 792.685 321.201 784.826C308.727 772.386 300.927 755.001 299.087 737.571C298.294 730.058 298.505 722.438 298.5 714.893L298.372 449.633L298.283 377.572C298.177 363.041 297.227 348.025 298.36 333.541C298.979 325.625 300.945 318.09 303.441 310.58C304.908 306.258 307.401 301.743 309.721 297.813C322.179 276.698 343.01 264.734 366.253 258.845C371.061 254.716 381.036 250.243 386.953 248.142C388.188 246.032 389.431 244.043 391.183 242.307C399.646 233.919 414.626 236.094 425.61 236.187Z"/>
	<path fill="#921C2D" transform="scale(5.0357 5.0357)" d="M635.621 253.013C638.732 255.916 641.881 258.613 645.276 261.18C642.567 261.559 639.756 261.641 637.025 261.834C636.346 258.928 636.014 255.968 635.621 253.013Z"/>
	<path fill="#921C2D" transform="scale(5.0357 5.0357)" d="M590.194 220.499C596.21 225.289 601.133 230.812 607.597 235.628C603.611 235.408 599.614 235.542 595.625 235.615L590.194 220.499Z"/>
	<path fill="#F36337" transform="scale(5.0357 5.0357)" d="M366.253 258.845C371.061 254.716 381.036 250.243 386.953 248.142C385.677 251.497 384.478 254.681 384.224 258.301Q375.218 257.899 366.253 258.845Z"/>
	<path fill="#FBF6DF" transform="scale(5.0357 5.0357)" d="M519.932 647.689C531.645 659.401 544.896 670.025 555.467 682.799C547.628 685.56 539.863 688.567 532.076 691.475C526.139 693.672 520.255 695.902 514.45 698.431C511.333 694.781 507.697 691.578 504.047 688.478C507.263 681.889 509.607 674.6 512.285 667.766C514.876 661.152 518.011 654.528 519.932 647.689Z"/>
	<path fill="#921C2D" transform="scale(5.0357 5.0357)" d="M712.086 297.019C720.693 303.107 732.777 316.882 740.584 324.781L781.18 365.236C786.837 370.868 792.277 376.723 798.033 382.254C790.184 379.833 782.732 379.42 775.195 383.4C763.608 389.519 752.678 403.976 743.062 413.289C740.724 411.059 738.266 408.941 735.854 406.791Q730.518 412.505 725.525 418.52L725.432 368.793C725.386 353.689 726.585 335.968 722.942 321.377C720.767 312.666 716.388 304.818 712.086 297.019Z"/>
	<path fill="#65D0D2" transform="scale(5.0357 5.0357)" d="M743.062 413.289C752.678 403.976 763.608 389.519 775.195 383.4C782.732 379.42 790.184 379.833 798.033 382.254C802.923 384.89 807.03 387.437 811.073 391.258C813.791 394.037 816.23 396.9 818.617 399.968C822.377 409.404 823.907 418.142 819.647 427.833C815.249 437.84 806.603 443.359 799.287 450.937Q794.886 455.582 790.737 460.453C782.491 452.849 775.114 444.319 766.875 436.662C758.594 429.332 750.854 421.145 743.062 413.289Z"/>
	<path fill="#2098A6" transform="scale(5.0357 5.0357)" d="M811.073 391.258C813.791 394.037 816.23 396.9 818.617 399.968C822.377 409.404 823.907 418.142 819.647 427.833C815.249 437.84 806.603 443.359 799.287 450.937Q794.886 455.582 790.737 460.453C782.491 452.849 775.114 444.319 766.875 436.662C774.445 431.046 807.234 398.657 811.073 391.258Z"/>
	<path fill="#FBF6DF" transform="scale(5.0357 5.0357)" d="M639.055 287.989C656.835 287.868 671.002 291.643 683.94 304.498C701.33 321.776 698.953 344.123 698.908 366.665Q698.501 406.819 698.855 446.972L679.063 466.394C677.434 462.9 678.557 426.7 678.634 419.736C679.606 408.451 678.95 396.597 678.941 385.253C678.931 372.658 680.148 357.553 677.787 345.259C676.324 337.642 673.111 329.989 668.612 323.667C658.463 309.403 646.484 305.171 629.952 302.398C635.223 298.625 637.858 295.137 638.959 288.59L639.055 287.989Z"/>
	<path fill="#F36337" transform="scale(5.0357 5.0357)" d="M451.622 260.667C452.066 241.928 456.774 226.228 470.745 212.973C482.47 201.848 497.524 196.572 513.613 197.045C528.837 197.492 542.842 204.179 553.146 215.319C566.211 229.443 569.532 242.156 569.549 260.896C558.186 260.554 546.689 260.808 535.321 260.995C531.908 262.169 489.269 262.861 486.792 261.61C486.658 261.542 486.543 261.44 486.418 261.355Q473.764 260.954 461.103 260.978C455.189 260.964 449.124 261.242 443.242 260.614L451.622 260.667Z"/>
	<path fill="#FBF6DF" transform="scale(5.0357 5.0357)" d="M486.418 261.355C485.717 259.964 485.027 258.565 484.46 257.113C481.77 250.224 481.931 242.879 485.068 236.134C488.24 229.311 494.339 224.044 501.386 221.494C508.8 218.812 517.613 219.185 524.726 222.668C531.116 225.797 535.5 231.563 537.727 238.22C540.375 246.133 539.039 253.769 535.321 260.995C531.908 262.169 489.269 262.861 486.792 261.61C486.658 261.542 486.543 261.44 486.418 261.355Z"/>
	<path fill="#EEC498" transform="scale(5.0357 5.0357)" d="M535.321 260.995C546.689 260.808 558.186 260.554 569.549 260.896C577.881 260.834 592.47 258.427 598.629 264.763C601.402 267.616 602.46 271.747 602.534 275.623C600.625 278.525 598.878 281.054 596.235 283.358C585.87 292.394 566.074 297.534 552.503 300.342C515.061 308.089 458.256 305.452 426.091 284.008C423.809 282.486 421.857 280.679 419.885 278.784Q419.839 277.024 419.852 275.263C419.896 271.205 421.085 267.03 424.152 264.203C429.265 259.488 436.841 260.421 443.242 260.614C449.124 261.242 455.189 260.964 461.103 260.978Q473.764 260.954 486.418 261.355C486.543 261.44 486.658 261.542 486.792 261.61C489.269 262.861 531.908 262.169 535.321 260.995Z"/>
	<path fill="#F36337" transform="scale(5.0357 5.0357)" d="M602.534 275.623Q602.68 289.564 602.523 303.505L602.593 308.992C602.659 315.782 603.242 323.703 597.899 328.852C595.835 330.841 592.336 332.857 589.494 333.326C584.245 334.193 578.26 333.698 572.92 333.702L541.401 333.696C508.357 333.666 475.089 334.376 442.064 333.435C435.219 333.24 428.915 332.834 424.068 327.417C418.286 320.956 419.632 311.448 419.889 303.466Q419.815 291.125 419.885 278.784C421.857 280.679 423.809 282.486 426.091 284.008C458.256 305.452 515.061 308.089 552.503 300.342C566.074 297.534 585.87 292.394 596.235 283.358C598.878 281.054 600.625 278.525 602.534 275.623Z"/>
	<path fill="#EEC498" transform="scale(5.0357 5.0357)" d="M324.376 712.935C335.35 731.474 349.471 750.318 371.509 755.902C380.29 758.127 389.676 757.502 398.667 757.488L426.229 757.489Q483.053 757.865 539.877 757.612L601.94 757.674C613.837 757.704 626.252 758.403 638.094 757.269C646.745 756.44 653.892 753.539 661.312 749.07C675.438 740.56 688.082 727.716 699.114 715.551C699.12 723.441 699.405 731.359 699.227 739.245C699.057 746.819 697.035 753.146 691.364 758.463C687.093 762.467 681.867 765.451 677.134 768.868C672.635 772.116 668.338 776.08 663.441 778.708C660.953 780.044 658.254 780.992 655.516 781.677C647.256 783.744 635.622 782.711 627.038 782.763L572.891 782.928L438.5 782.909C418.296 782.877 397.932 783.565 377.753 782.984C363.047 782.561 348.88 777.044 338.705 766.177C323.838 750.298 323.755 733.382 324.376 712.935Z"/>
	<path fill="#921C2D" transform="scale(5.0357 5.0357)" d="M799.287 450.937C803.095 462.095 803.537 475.01 804.669 486.683C808.568 526.881 806.938 557.036 795.988 595.954Q792.592 608.347 788.083 620.38Q783.573 632.413 777.987 643.986Q772.799 654.437 766.9 664.503Q761.001 674.569 754.419 684.203Q747.837 693.836 740.604 702.991Q733.371 712.146 725.522 720.778L725.54 538.383C732.437 530.31 740.554 522.828 748.097 515.322Q772.697 490.859 797.842 466.956C795.571 464.685 793.138 462.584 790.737 460.453Q794.886 455.582 799.287 450.937Z"/>
	<path fill="#F36337" transform="scale(5.0357 5.0357)" d="M737.074 422.704C744.282 429.098 750.791 436.71 757.424 443.709C765.156 451.833 773.928 459.172 781.33 467.557C771.168 478.194 760.186 488.082 749.762 498.468L657.561 589.564L599.915 646.633C589.653 656.805 579.742 667.657 568.752 677.041C561.206 670.335 553.882 663.099 546.894 655.811C539.589 649.464 531.588 642.529 525.477 634.985C530.744 628.576 537.46 622.758 543.369 616.92L578.423 582.26L682.933 477.944C701.105 459.673 719.852 441.884 737.074 422.704Z"/>
	<path fill="#FBF6DF" transform="scale(5.0357 5.0357)" d="M324.376 712.935C323.974 705.69 324.389 698.242 324.423 690.977L324.507 647.396L324.503 501.373L324.353 387.773L324.288 354.141C324.275 346.965 324.022 339.675 324.628 332.519C325.752 319.258 332.719 306.122 342.954 297.655C355.069 287.634 369.077 283.564 384.627 285.023C384.817 288.307 385.004 291.496 386.14 294.623C387.686 298.88 390.411 301.011 394.369 302.92C394.139 303.002 393.911 303.087 393.681 303.166C389.559 304.571 384.373 304.67 380.028 305.556C365.554 308.509 354.536 317.246 347.731 330.367C343.977 337.604 341.465 346.408 342.107 354.618L342.415 583.768L342.34 648.431C342.331 659.453 341.328 671.566 343.021 682.444C344.517 692.054 349.728 701.657 356.575 708.501C363.016 714.94 371.694 720.292 380.562 722.528C391.452 725.274 409.169 723.867 420.863 723.838L481.333 723.665Q483.143 723.663 484.951 723.567C486.277 724.293 487.934 725.456 489.5 725.139C490.344 724.969 491.255 724.492 492.041 724.136C496.814 720.622 503.234 718.232 508.608 715.64Q526.378 706.958 544.563 699.184C555.178 694.706 566.418 690.99 576.272 684.962C587.37 678.173 601.97 660.937 611.711 651.171Q645.045 617.441 679.082 584.419C685.155 577.794 691.644 571.037 698.582 565.317Q699.257 640.433 699.114 715.551C688.082 727.716 675.438 740.56 661.312 749.07C653.892 753.539 646.745 756.44 638.094 757.269C626.252 758.403 613.837 757.704 601.94 757.674L539.877 757.612Q483.053 757.865 426.229 757.489L398.667 757.488C389.676 757.502 380.29 758.127 371.509 755.902C349.471 750.318 335.35 731.474 324.376 712.935Z"/>
	<path fill="#2098A6" transform="scale(5.0357 5.0357)" d="M492.041 724.136C496.814 720.622 503.234 718.232 508.608 715.64Q526.378 706.958 544.563 699.184C555.178 694.706 566.418 690.99 576.272 684.962C587.37 678.173 601.97 660.937 611.711 651.171Q645.045 617.441 679.082 584.419L679.12 648.565C679.107 660.26 680.396 675.684 677.851 686.997C675.963 695.385 671.472 703.634 665.433 709.749C652.149 723.199 639.906 724.624 621.971 724.613Q557.004 724.843 492.041 724.136Z"/>
	<defs>
		<linearGradient id="gradient_0" gradientUnits="userSpaceOnUse" x1="314.12589" y1="528.79016" x2="602.69434" y2="575.78748">
			<stop offset="0" stop-color="#217477"/>
			<stop offset="1" stop-color="#39B2AC"/>
		</linearGradient>
	</defs>
	<path fill="url(#gradient_0)" transform="scale(5.0357 5.0357)" d="M342.107 354.618C342.243 353.231 342.719 351.048 342.37 349.745L343.027 349.664L343.495 350.367C347.962 357.013 353.479 363.003 358.364 369.352C363.36 375.844 367.808 382.801 372.995 389.13C368.492 396.055 366.306 402.491 368.14 410.847C369.541 417.235 373.117 422.724 378.686 426.232C382.034 428.341 385.477 429.251 389.26 430.197C393.088 435.477 397.099 440.567 401.203 445.634C411.906 461.029 423.166 481.766 437.981 493.448C440.642 497.159 445.056 500.069 449.143 502.001C455.513 507.239 462.954 511.343 470.163 515.313C502.533 533.138 539.887 543.438 577.009 539.75C584.71 538.985 592.26 537.449 599.773 535.643C603.79 534.678 608.421 532.939 612.5 532.697C601.685 543.924 590.413 554.728 579.366 565.728C573.89 571.182 568.26 578.234 561.947 582.608C556.408 588.01 551.181 594.037 545.44 599.181Q537.702 607.231 529.761 615.081C525.172 619.623 519.095 624.365 515.746 629.885C512.051 635.978 510.077 643.973 507.767 650.715C502.352 666.517 497.457 682.48 491.98 698.261C490.661 702.063 483.235 718.523 483.522 720.888C483.631 721.785 484.447 722.835 484.951 723.567Q483.143 723.663 481.333 723.665L420.863 723.838C409.169 723.867 391.452 725.274 380.562 722.528C371.694 720.292 363.016 714.94 356.575 708.501C349.728 701.657 344.517 692.054 343.021 682.444C341.328 671.566 342.331 659.453 342.34 648.431L342.415 583.768L342.107 354.618Z"/>
	<path fill="#EEC498" transform="scale(5.0357 5.0357)" d="M388.636 564.594C394.17 564.245 399.073 564.899 404.004 567.654C409.619 570.791 414.106 576.141 415.837 582.374C417.444 588.162 416.449 594.406 413.445 599.573C409.663 606.08 403.701 609.53 396.63 611.423C390.923 612.022 385.259 611.636 380.103 608.851C374.621 605.889 370.624 600.525 369.045 594.523C367.371 588.16 368.517 580.878 371.999 575.308C375.875 569.108 381.731 566.144 388.636 564.594Z"/>
	<path fill="#EEC498" transform="scale(5.0357 5.0357)" d="M390.837 469.66C396.71 469.254 402.816 470.794 407.668 474.144Q408.164 474.485 408.643 474.85Q409.123 475.215 409.583 475.603Q410.044 475.991 410.485 476.401Q410.926 476.812 411.346 477.243Q411.767 477.674 412.166 478.126Q412.564 478.577 412.941 479.047Q413.317 479.518 413.67 480.006Q414.022 480.494 414.351 480.999Q414.679 481.504 414.982 482.025Q415.285 482.545 415.563 483.08Q415.84 483.614 416.091 484.162Q416.342 484.71 416.565 485.269Q416.789 485.828 416.985 486.397Q417.181 486.967 417.349 487.545Q417.517 488.124 417.656 488.71Q417.796 489.296 417.906 489.888Q418.015 490.519 418.092 491.155Q418.17 491.791 418.215 492.43Q418.261 493.069 418.274 493.709Q418.288 494.349 418.27 494.99Q418.251 495.63 418.201 496.269Q418.151 496.907 418.069 497.542Q417.987 498.178 417.874 498.808Q417.76 499.439 417.615 500.062Q417.47 500.686 417.295 501.302Q417.119 501.918 416.913 502.525Q416.707 503.131 416.47 503.727Q416.234 504.322 415.969 504.905Q415.703 505.488 415.409 506.057Q415.114 506.626 414.792 507.179Q414.47 507.733 414.12 508.27Q413.771 508.806 413.395 509.325C409.237 514.971 403.616 517.78 396.803 518.701C390.471 519.337 383.868 518.216 378.596 514.507Q378.109 514.159 377.64 513.788Q377.17 513.417 376.72 513.022Q376.269 512.628 375.839 512.212Q375.409 511.796 375 511.359Q374.59 510.923 374.203 510.466Q373.816 510.01 373.453 509.534Q373.089 509.059 372.749 508.567Q372.409 508.074 372.093 507.565Q371.778 507.056 371.489 506.533Q371.199 506.009 370.936 505.471Q370.673 504.934 370.436 504.384Q370.2 503.834 369.991 503.273Q369.782 502.712 369.602 502.142Q369.421 501.571 369.268 500.992Q369.116 500.413 368.993 499.828Q368.869 499.242 368.775 498.651Q368.673 498.012 368.603 497.369Q368.533 496.726 368.495 496.08Q368.457 495.434 368.451 494.787Q368.446 494.14 368.472 493.494Q368.498 492.848 368.556 492.203Q368.615 491.559 368.705 490.919Q368.795 490.278 368.917 489.643Q369.039 489.007 369.192 488.379Q369.345 487.75 369.529 487.13Q369.714 486.51 369.928 485.9Q370.143 485.289 370.388 484.691Q370.633 484.092 370.907 483.506Q371.181 482.92 371.484 482.348Q371.787 481.777 372.118 481.221Q372.448 480.665 372.807 480.126Q373.165 479.587 373.549 479.067C377.871 473.317 383.861 470.528 390.837 469.66Z"/>
	<path fill="#EEC498" transform="scale(5.0357 5.0357)" d="M434.294 599.161C433.345 598.455 432.381 597.74 431.568 596.876C429.588 594.774 428.264 591.607 428.501 588.688C428.651 586.834 429.508 585.21 430.967 584.051C432.645 582.718 434.216 582.382 436.298 582.198C443.48 581.562 450.966 581.965 458.178 581.968L499.349 582.026L540.466 582.16C547.52 582.205 554.94 581.831 561.947 582.608C556.408 588.01 551.181 594.037 545.44 599.181C519.073 598.503 492.519 599.292 466.133 599.353C455.625 599.377 444.752 599.937 434.294 599.161Z"/>
	<path fill="#65D0D2" transform="scale(5.0357 5.0357)" d="M602.523 303.505C611.548 303.341 621.088 304.184 629.952 302.398C646.484 305.171 658.463 309.403 668.612 323.667C673.111 329.989 676.324 337.642 677.787 345.259C680.148 357.553 678.931 372.658 678.941 385.253C678.95 396.597 679.606 408.451 678.634 419.736C678.557 426.7 677.434 462.9 679.063 466.394C666.127 480.747 651.54 494.066 637.789 507.658C629.47 515.881 621.495 525.295 612.5 532.697C608.421 532.939 603.79 534.678 599.773 535.643C592.26 537.449 584.71 538.985 577.009 539.75C539.887 543.438 502.533 533.138 470.163 515.313C462.954 511.343 455.513 507.239 449.143 502.001C445.056 500.069 440.642 497.159 437.981 493.448C423.166 481.766 411.906 461.029 401.203 445.634C397.099 440.567 393.088 435.477 389.26 430.197C385.477 429.251 382.034 428.341 378.686 426.232C373.117 422.724 369.541 417.235 368.14 410.847C366.306 402.491 368.492 396.055 372.995 389.13C367.808 382.801 363.36 375.844 358.364 369.352C353.479 363.003 347.962 357.013 343.495 350.367L343.027 349.664L342.37 349.745C342.719 351.048 342.243 353.231 342.107 354.618C341.465 346.408 343.977 337.604 347.731 330.367C354.536 317.246 365.554 308.509 380.028 305.556C384.373 304.67 389.559 304.571 393.681 303.166C393.911 303.087 394.139 303.002 394.369 302.92C402.718 303.986 411.478 303.534 419.889 303.466C419.632 311.448 418.286 320.956 424.068 327.417C428.915 332.834 435.219 333.24 442.064 333.435C475.089 334.376 508.357 333.666 541.401 333.696L572.92 333.702C578.26 333.698 584.245 334.193 589.494 333.326C592.336 332.857 595.835 330.841 597.899 328.852C603.242 323.703 602.659 315.782 602.593 308.992L602.523 303.505Z"/>
	<path fill="#FBF6DF" transform="scale(5.0357 5.0357)" d="M372.995 389.13C378.391 383.965 384.812 380.799 392.431 380.948Q393.028 380.956 393.623 380.993Q394.219 381.03 394.812 381.097Q395.405 381.163 395.994 381.26Q396.582 381.356 397.166 381.481Q397.749 381.606 398.326 381.761Q398.902 381.915 399.47 382.097Q400.038 382.28 400.597 382.491Q401.155 382.701 401.702 382.939Q402.249 383.178 402.784 383.443Q403.319 383.708 403.839 383.999Q404.36 384.29 404.866 384.607Q405.371 384.924 405.861 385.265Q406.35 385.607 406.822 385.972Q407.294 386.338 407.747 386.726Q408.2 387.115 408.633 387.525Q409.066 387.935 409.478 388.367Q409.925 388.824 410.347 389.304Q410.77 389.784 411.167 390.284Q411.565 390.785 411.936 391.305Q412.307 391.825 412.651 392.364Q412.996 392.903 413.312 393.458Q413.628 394.014 413.915 394.584Q414.203 395.155 414.46 395.74Q414.718 396.325 414.945 396.923Q415.173 397.52 415.369 398.128Q415.566 398.736 415.731 399.354Q415.896 399.971 416.03 400.596Q416.163 401.222 416.264 401.853Q416.366 402.484 416.434 403.119Q416.503 403.755 416.539 404.393Q416.575 405.031 416.579 405.67Q416.582 406.31 416.553 406.948C416.263 413.353 413.756 419.58 408.955 423.925C403.312 429.033 396.57 430.203 389.26 430.197C385.477 429.251 382.034 428.341 378.686 426.232C373.117 422.724 369.541 417.235 368.14 410.847C366.306 402.491 368.492 396.055 372.995 389.13Z"/>
	<path fill="#FBF6DF" transform="scale(5.0357 5.0357)" d="M435.049 398.719C448.78 398.212 462.637 398.507 476.383 398.489L552.396 398.489L609.554 398.494C619.437 398.467 629.605 397.925 639.462 398.425C641.272 398.516 643.088 398.83 644.648 399.802C646.302 400.833 647.486 402.358 647.866 404.288C648.315 406.565 647.544 408.775 646.158 410.578C644.329 412.958 642.619 413.372 639.739 413.776C596.245 414.477 552.666 413.949 509.162 413.951L462.234 414.023C453.935 414.052 445.374 414.499 437.101 414.025C434.477 413.874 431.547 413.487 429.266 412.076C427.829 411.188 426.927 409.728 426.591 408.089Q426.512 407.692 426.475 407.288Q426.439 406.884 426.445 406.479Q426.452 406.074 426.501 405.672Q426.551 405.269 426.643 404.875Q426.735 404.48 426.868 404.097Q427.002 403.715 427.175 403.348Q427.348 402.982 427.56 402.636Q427.771 402.29 428.018 401.969C429.843 399.563 432.207 399.117 435.049 398.719Z"/>
	<defs>
		<linearGradient id="gradient_1" gradientUnits="userSpaceOnUse" x1="541.66034" y1="401.80954" x2="537.42206" y2="538.86365">
			<stop offset="0" stop-color="#289E9B"/>
			<stop offset="1" stop-color="#52DFD7"/>
		</linearGradient>
	</defs>
	<path fill="url(#gradient_1)" transform="scale(5.0357 5.0357)" d="M401.203 445.634C425.191 444.518 449.275 444.854 473.285 444.842L561.146 444.523L599.153 444.396C607.486 444.363 616.064 444.743 624.328 443.561C635.902 441.906 646.97 435.913 653.952 426.379C658.894 419.63 660.888 411.57 659.638 403.309C665.897 408.873 672.476 414.052 678.634 419.736C678.557 426.7 677.434 462.9 679.063 466.394C666.127 480.747 651.54 494.066 637.789 507.658C629.47 515.881 621.495 525.295 612.5 532.697C608.421 532.939 603.79 534.678 599.773 535.643C592.26 537.449 584.71 538.985 577.009 539.75C539.887 543.438 502.533 533.138 470.163 515.313C462.954 511.343 455.513 507.239 449.143 502.001C445.056 500.069 440.642 497.159 437.981 493.448C423.166 481.766 411.906 461.029 401.203 445.634Z"/>
	<path fill="#FBF6DF" transform="scale(5.0357 5.0357)" d="M437.981 493.448C438.197 491.271 438.196 489.357 440.068 487.903C441.74 486.604 443.999 486.539 446.022 486.45C461.693 485.764 477.528 486.13 493.219 486.117L575.4 486.12L615.182 486.172C622.18 486.194 630.813 485.362 637.604 486.993C639.459 487.438 641.963 488.709 642.966 490.421C643.98 492.15 644.055 493.868 643.466 495.767C642.457 499.02 640.251 500.299 637.48 501.961C611.191 502.386 584.852 502.068 558.557 502.064L449.143 502.001C445.056 500.069 440.642 497.159 437.981 493.448Z"/>
	<path fill="#F36337" transform="scale(5.0357 5.0357)" d="M818.617 399.968Q842.179 420.82 863.973 443.513C870.161 449.836 886.143 467.796 891.998 471.552C893.778 484.727 893.965 498.451 894.039 511.743Q894.07 515.662 894.022 519.581Q893.973 523.501 893.844 527.418Q893.715 531.335 893.506 535.249Q893.297 539.163 893.008 543.072Q892.719 546.981 892.35 550.883Q891.981 554.785 891.532 558.678Q891.084 562.572 890.555 566.456Q890.027 570.339 889.419 574.211Q888.812 578.083 888.125 581.942Q887.438 585.801 886.672 589.645Q885.906 593.489 885.062 597.316Q884.218 601.144 883.296 604.953Q882.374 608.763 881.373 612.552Q880.373 616.342 879.296 620.11Q878.218 623.879 877.064 627.624Q875.91 631.37 874.679 635.091Q873.448 638.812 872.141 642.508Q870.835 646.203 869.453 649.871Q868.071 653.538 866.614 657.177Q865.157 660.816 863.627 664.424Q862.096 668.032 860.491 671.608Q858.887 675.184 857.209 678.726Q855.532 682.269 853.783 685.776Q852.033 689.283 850.212 692.754Q848.392 696.225 846.5 699.658Q844.609 703.091 842.647 706.484Q840.686 709.878 838.656 713.23Q836.625 716.583 834.527 719.893Q832.428 723.203 830.262 726.47Q828.096 729.736 825.864 732.958Q823.632 736.18 821.334 739.355Q819.036 742.53 816.674 745.658C800.999 766.196 783.314 783.622 763.621 800.261C704.551 850.171 636.973 881.843 560.18 892.067C521.052 897.277 476.492 896.751 437.963 887.757C430.28 880.246 422.13 873.181 414.267 865.855Q394.404 847.272 374.761 828.455C366.117 820.238 356.763 812.079 348.854 803.154C359.708 806.532 369.643 807.819 380.989 807.927C440.58 808.493 500.205 807.611 559.802 807.789L616.865 808.01C630.065 808.068 649.759 809.556 662.089 806.357C665.616 805.442 669.172 804.217 672.377 802.468C678.243 799.268 683.472 794.982 688.915 791.133C696.735 785.604 705.354 780.435 712.153 773.657C727.111 758.744 725.526 740.267 725.522 720.778Q733.371 712.146 740.604 702.991Q747.837 693.836 754.419 684.203Q761.001 674.569 766.9 664.503Q772.799 654.437 777.987 643.986Q783.573 632.413 788.082 620.38Q792.592 608.347 795.988 595.954C806.938 557.036 808.568 526.881 804.669 486.683C803.537 475.01 803.095 462.095 799.287 450.937C806.603 443.359 815.249 437.84 819.647 427.833C823.907 418.142 822.377 409.404 818.617 399.968Z"/>
</svg>
